<svg viewBox="0 0 800 300" xmlns="http://www.w3.org/2000/svg">
  <!-- Background with e-commerce themed gradient -->
  <defs>
    <linearGradient id="bgGradient" x1="0%" y1="0%" x2="100%" y2="100%">
      <stop offset="0%" stop-color="#10002b" />
      <stop offset="100%" stop-color="#240046" />
    </linearGradient>
    
    <!-- Shopping cart pattern -->
    <pattern id="cartPattern" width="60" height="60" patternUnits="userSpaceOnUse">
      <path d="M30,15 L40,40 L15,40 Z" fill="none" stroke="#c77dff" stroke-width="1" opacity="0.15"/>
      <circle cx="20" cy="45" r="3" fill="none" stroke="#c77dff" stroke-width="1" opacity="0.15"/>
      <circle cx="35" cy="45" r="3" fill="none" stroke="#c77dff" stroke-width="1" opacity="0.15"/>
    </pattern>
    
    <!-- Glow effect -->
    <filter id="glow" x="-50%" y="-50%" width="200%" height="200%">
      <feGaussianBlur stdDeviation="2" result="blur"/>
      <feComposite in="SourceGraphic" in2="blur" operator="over"/>
    </filter>
  </defs>
  
  <!-- Main background -->
  <rect width="800" height="300" fill="url(#bgGradient)" rx="8" ry="8"/>
  
  <!-- Shopping cart pattern layer -->
  <rect width="800" height="300" fill="url(#cartPattern)" rx="8" ry="8"/>
  
  <!-- Product cards -->
  <g transform="translate(90, 60) scale(0.85)">
    <!-- Product card 1 -->
    <rect x="50" y="50" width="100" height="120" fill="#f8f9fa" opacity="0.85" rx="5" ry="5"/>
    <rect x="60" y="60" width="80" height="60" fill="#e0aaff" opacity="0.7" rx="3" ry="3"/>
    <rect x="60" y="130" width="50" height="8" fill="#5a189a" opacity="0.8" rx="2" ry="2"/>
    <rect x="60" y="145" width="30" height="8" fill="#7b2cbf" opacity="0.6" rx="2" ry="2"/>
    <circle cx="130" cy="140" r="10" fill="#5a189a" opacity="0.8"/>
    <path d="M125,140 L130,145 L135,135" stroke="#ffffff" stroke-width="2" fill="none"/>
    
    <!-- Product card 2 -->
    <rect x="180" y="50" width="100" height="120" fill="#f8f9fa" opacity="0.85" rx="5" ry="5"/>
    <rect x="190" y="60" width="80" height="60" fill="#e0aaff" opacity="0.7" rx="3" ry="3"/>
    <rect x="190" y="130" width="50" height="8" fill="#5a189a" opacity="0.8" rx="2" ry="2"/>
    <rect x="190" y="145" width="30" height="8" fill="#7b2cbf" opacity="0.6" rx="2" ry="2"/>
    <circle cx="260" cy="140" r="10" fill="#5a189a" opacity="0.8"/>
    <path d="M255,140 L260,145 L265,135" stroke="#ffffff" stroke-width="2" fill="none"/>
    
    <!-- Product card 3 -->
    <rect x="310" y="50" width="100" height="120" fill="#f8f9fa" opacity="0.85" rx="5" ry="5"/>
    <rect x="320" y="60" width="80" height="60" fill="#e0aaff" opacity="0.7" rx="3" ry="3"/>
    <rect x="320" y="130" width="50" height="8" fill="#5a189a" opacity="0.8" rx="2" ry="2"/>
    <rect x="320" y="145" width="30" height="8" fill="#7b2cbf" opacity="0.6" rx="2" ry="2"/>
    <circle cx="390" cy="140" r="10" fill="#5a189a" opacity="0.8"/>
    <path d="M385,140 L390,145 L395,135" stroke="#ffffff" stroke-width="2" fill="none"/>
  </g>
  
  <!-- Shopping cart icon -->
  <g transform="translate(550, 120)">
    <path d="M0,0 L10,0 L15,25 L40,25 L45,5 L15,5" fill="none" stroke="#e0aaff" stroke-width="3" opacity="0.9"/>
    <circle cx="20" cy="35" r="5" fill="none" stroke="#e0aaff" stroke-width="2" opacity="0.9"/>
    <circle cx="40" cy="35" r="5" fill="none" stroke="#e0aaff" stroke-width="2" opacity="0.9"/>
  </g>
  
  <!-- Abstract payment symbols -->
  <g transform="translate(600, 80)">
    <!-- Credit card symbol -->
    <rect x="0" y="0" width="40" height="30" fill="none" stroke="#c77dff" stroke-width="2" rx="3" ry="3" opacity="0.8"/>
    <rect x="5" y="5" width="30" height="5" fill="#c77dff" opacity="0.7" rx="1" ry="1"/>
    <rect x="5" y="20" width="15" height="5" fill="#c77dff" opacity="0.7" rx="1" ry="1"/>
    
    <!-- Mobile payment symbol -->
    <rect x="60" y="0" width="20" height="35" fill="none" stroke="#c77dff" stroke-width="2" rx="3" ry="3" opacity="0.8"/>
    <rect x="65" y="5" width="10" height="5" fill="#c77dff" opacity="0.7" rx="1" ry="1"/>
    <circle cx="70" cy="25" r="5" fill="none" stroke="#c77dff" stroke-width="1.5" opacity="0.8"/>
  </g>
  
  <!-- Connection lines between products and cart -->
  <g opacity="0.6">
    <line x1="230" y1="140" x2="550" y2="130" stroke="#e0aaff" stroke-width="1.5" stroke-dasharray="5,3"/>
    <line x1="370" y1="140" x2="550" y2="130" stroke="#e0aaff" stroke-width="1.5" stroke-dasharray="5,3"/>
    <line x1="550" y1="130" x2="600" y2="95" stroke="#e0aaff" stroke-width="1.5" stroke-dasharray="5,3"/>
    <line x1="550" y1="130" x2="630" y2="95" stroke="#e0aaff" stroke-width="1.5" stroke-dasharray="5,3"/>
    
    <circle cx="230" cy="140" r="3" fill="#e0aaff" filter="url(#glow)"/>
    <circle cx="370" cy="140" r="3" fill="#e0aaff" filter="url(#glow)"/>
    <circle cx="550" cy="130" r="3" fill="#e0aaff" filter="url(#glow)"/>
    <circle cx="600" cy="95" r="3" fill="#e0aaff" filter="url(#glow)"/>
    <circle cx="630" cy="95" r="3" fill="#e0aaff" filter="url(#glow)"/>
  </g>
  
  <!-- Subtle border accent -->
  <rect x="0" y="0" width="800" height="300" fill="none" stroke="#c77dff" stroke-width="2" opacity="0.5" rx="8" ry="8"/>
</svg>