<svg viewBox="0 0 800 300" xmlns="http://www.w3.org/2000/svg">
  <!-- Background with text-themed gradient -->
  <defs>
    <linearGradient id="bgGradient" x1="0%" y1="0%" x2="100%" y2="100%">
      <stop offset="0%" stop-color="#0d1321" />
      <stop offset="100%" stop-color="#1d2d44" />
    </linearGradient>
    
    <!-- Text effect pattern -->
    <pattern id="textPattern" width="200" height="200" patternUnits="userSpaceOnUse">
      <text x="20" y="30" font-family="monospace" font-size="12" fill="#3f88c5" opacity="0.2">function countWords(text)</text>
      <text x="20" y="50" font-family="monospace" font-size="12" fill="#3f88c5" opacity="0.2">{ return text.split(/\s+/)</text>
      <text x="30" y="70" font-family="monospace" font-size="12" fill="#3f88c5" opacity="0.2">.filter(Boolean).length; }</text>
      <text x="40" y="110" font-family="monospace" font-size="12" fill="#3f88c5" opacity="0.2">const charCount = text =></text>
      <text x="40" y="130" font-family="monospace" font-size="12" fill="#3f88c5" opacity="0.2">text.replace(/\s+/g, '').length;</text>
      <text x="20" y="170" font-family="monospace" font-size="12" fill="#3f88c5" opacity="0.2">// Word counter statistics</text>
      <text x="20" y="190" font-family="monospace" font-size="12" fill="#3f88c5" opacity="0.2">const stats = analyzeText(text);</text>
    </pattern>
    
    <!-- Glow effect -->
    <filter id="glow" x="-50%" y="-50%" width="200%" height="200%">
      <feGaussianBlur stdDeviation="1.5" result="blur"/>
      <feComposite in="SourceGraphic" in2="blur" operator="over"/>
    </filter>
  </defs>
  
  <!-- Main background -->
  <rect width="800" height="300" fill="url(#bgGradient)" rx="8" ry="8"/>
  
  <!-- Text pattern layer -->
  <rect width="800" height="300" fill="url(#textPattern)" opacity="0.7" rx="8" ry="8"/>
  
  <!-- Document graphics -->
  <g transform="translate(100, 75) scale(0.8)">
    <!-- Document icons -->
    <rect x="50" y="50" width="60" height="80" fill="#f8f9fa" opacity="0.8" rx="2" ry="2"/>
    <rect x="55" y="60" width="50" height="5" fill="#3f88c5" opacity="0.7" rx="1" ry="1"/>
    <rect x="55" y="70" width="40" height="5" fill="#3f88c5" opacity="0.7" rx="1" ry="1"/>
    <rect x="55" y="80" width="45" height="5" fill="#3f88c5" opacity="0.7" rx="1" ry="1"/>
    <rect x="55" y="90" width="35" height="5" fill="#3f88c5" opacity="0.7" rx="1" ry="1"/>
    <rect x="55" y="100" width="50" height="5" fill="#3f88c5" opacity="0.7" rx="1" ry="1"/>
    
    <rect x="150" y="80" width="60" height="80" fill="#f8f9fa" opacity="0.8" rx="2" ry="2"/>
    <rect x="155" y="90" width="50" height="5" fill="#3f88c5" opacity="0.7" rx="1" ry="1"/>
    <rect x="155" y="100" width="30" height="5" fill="#3f88c5" opacity="0.7" rx="1" ry="1"/>
    <rect x="155" y="110" width="40" height="5" fill="#3f88c5" opacity="0.7" rx="1" ry="1"/>
    <rect x="155" y="120" width="50" height="5" fill="#3f88c5" opacity="0.7" rx="1" ry="1"/>
    <rect x="155" y="130" width="45" height="5" fill="#3f88c5" opacity="0.7" rx="1" ry="1"/>
    
    <!-- Word count metrics -->
    <rect x="300" y="70" width="100" height="30" fill="#f8f9fa" opacity="0.8" rx="4" ry="4"/>
    <text x="320" y="90" font-family="sans-serif" font-size="12" fill="#1d3557">WORDS: 150</text>
    
    <rect x="300" y="110" width="100" height="30" fill="#f8f9fa" opacity="0.8" rx="4" ry="4"/>
    <text x="320" y="130" font-family="sans-serif" font-size="12" fill="#1d3557">CHARS: 857</text>
    
    <rect x="300" y="150" width="100" height="30" fill="#f8f9fa" opacity="0.8" rx="4" ry="4"/>
    <text x="315" y="170" font-family="sans-serif" font-size="12" fill="#1d3557">LINES: 12</text>
  </g>
  
  <!-- Abstract connecting lines -->
  <g opacity="0.5">
    <line x1="125" y1="110" x2="180" y2="125" stroke="#3498db" stroke-width="1.5" stroke-dasharray="5,3"/>
    <line x1="210" y1="125" x2="300" y2="85" stroke="#3498db" stroke-width="1.5" stroke-dasharray="5,3"/>
    <line x1="210" y1="125" x2="300" y2="125" stroke="#3498db" stroke-width="1.5" stroke-dasharray="5,3"/>
    <line x1="210" y1="125" x2="300" y2="165" stroke="#3498db" stroke-width="1.5" stroke-dasharray="5,3"/>
    
    <circle cx="125" cy="110" r="3" fill="#3498db" filter="url(#glow)"/>
    <circle cx="180" cy="125" r="3" fill="#3498db" filter="url(#glow)"/>
    <circle cx="210" cy="125" r="3" fill="#3498db" filter="url(#glow)"/>
    <circle cx="300" cy="85" r="3" fill="#3498db" filter="url(#glow)"/>
    <circle cx="300" cy="125" r="3" fill="#3498db" filter="url(#glow)"/>
    <circle cx="300" cy="165" r="3" fill="#3498db" filter="url(#glow)"/>
  </g>
  
  <!-- Subtle border accent -->
  <rect x="0" y="0" width="800" height="300" fill="none" stroke="#3f88c5" stroke-width="2" opacity="0.5" rx="8" ry="8"/>
</svg>